<?xml version="1.0" encoding="utf-8"?>
<!-- Generator: Adobe Illustrator 19.2.1, SVG Export Plug-In . SVG Version: 6.00 Build 0)  -->
<svg version="1.1" id="레이어_1" xmlns="http://www.w3.org/2000/svg" xmlns:xlink="http://www.w3.org/1999/xlink" x="0px"
	 y="0px" viewBox="0 0 600 200" style="enable-background:new 0 0 600 200;" xml:space="preserve">
<style type="text/css">
	.st0{fill:#FFD46A;}
	.st1{font-family:'NanumGothicExtraBold';}
	.st2{font-size:101px;}
</style>
<g>
	<path class="st0" d="M151.6,59.9c-1.7,1-3.8,0.7-5.1-0.7c-8.2-8.4-18.5-14.4-29.8-17.2c-1.9-0.5-3.2-2.2-3.2-4.1V23.3h-25v14.6
		c0,1.9-1.3,3.6-3.2,4.1c-11.3,2.9-21.6,8.8-29.8,17.2c-1.3,1.4-3.5,1.7-5.1,0.7l-12.6-7.3L25.4,74.2L38,81.5c1.7,1,2.5,2.9,2,4.8
		c-1.6,5.6-2.4,11.4-2.4,17.2c0,5.8,0.8,11.6,2.4,17.2c0.5,1.9-0.3,3.8-2,4.8l-12.6,7.3l12.5,21.6l11.9-6.9L70.3,127
		c1.6-1.6,4.3-1.6,6,0c1.6,1.6,1.6,4.3,0,6l-17.7,17.7c7.2,6.5,15.7,11.2,25,13.9l19-19c1.6-1.6,4.3-1.6,6,0c1.6,1.6,1.6,4.3,0,6
		l-19.9,19.9v12.3h25v-14.6c0-1.9,1.3-3.6,3.2-4.1c11.3-2.9,21.6-8.8,29.8-17.2c1.3-1.4,3.5-1.7,5.1-0.7l12.6,7.3l12.5-21.6
		l-12.6-7.3c-1.7-1-2.5-2.9-2-4.8c1.6-5.6,2.4-11.4,2.4-17.2c0-5.8-0.8-11.6-2.4-17.2c-0.5-1.9,0.3-3.8,2-4.8l12.6-7.3l-12.5-21.6
		L151.6,59.9z M101,125.4c-12.1,0-22-9.9-22-22s9.9-22,22-22s22,9.9,22,22S113.2,125.4,101,125.4z"/>
	<g>
		<path d="M113.9,188.6H80.5c-2.3,0-4.2-1.9-4.2-4.2v-15.6c-10.5-3.2-20.2-8.8-28.2-16.3l-13.5,7.8c-1,0.6-2.1,0.7-3.2,0.4
			c-1.1-0.3-2-1-2.6-2l-16.7-28.9c-1.2-2-0.5-4.6,1.5-5.8l13.5-7.8c-1.2-5.3-1.9-10.8-1.9-16.3c0-5.5,0.6-11,1.9-16.3l-13.5-7.8
			c-2-1.2-2.7-3.7-1.5-5.8l16.7-28.9c0.6-1,1.5-1.7,2.6-2c1.1-0.3,2.2-0.1,3.2,0.4l13.5,7.8c8.1-7.5,17.7-13.1,28.2-16.3V15.6
			c0-2.3,1.9-4.2,4.2-4.2h33.4c2.3,0,4.2,1.9,4.2,4.2v15.6c10.5,3.2,20.2,8.8,28.2,16.3l13.5-7.8c1-0.6,2.1-0.7,3.2-0.4
			c1.1,0.3,2,1,2.6,2l16.7,28.9c1.2,2,0.5,4.6-1.5,5.8l-13.5,7.8c1.2,5.3,1.9,10.8,1.9,16.3c0,5.5-0.6,11-1.9,16.3l13.5,7.8
			c2,1.2,2.7,3.7,1.5,5.8l-16.7,28.9c-0.6,1-1.5,1.7-2.6,2c-1.1,0.3-2.2,0.1-3.2-0.4l-13.5-7.8c-8.1,7.5-17.7,13.1-28.2,16.3v15.6
			C118.2,186.7,116.3,188.6,113.9,188.6z M84.8,180.2h25v-14.6c0-1.9,1.3-3.6,3.2-4.1c11.3-2.9,21.6-8.8,29.8-17.2
			c1.3-1.4,3.5-1.7,5.1-0.7l12.6,7.3l12.5-21.6l-12.6-7.3c-1.7-1-2.5-2.9-2-4.8c1.6-5.6,2.4-11.4,2.4-17.2s-0.8-11.6-2.4-17.2
			c-0.5-1.9,0.3-3.8,2-4.8l12.6-7.3l-12.5-21.6l-12.6,7.3c-1.7,1-3.8,0.7-5.1-0.7c-8.2-8.4-18.5-14.4-29.8-17.2
			c-1.9-0.5-3.2-2.2-3.2-4.1V19.8h-25v14.6c0,1.9-1.3,3.6-3.2,4.1C70.3,41.3,60,47.3,51.8,55.7c-1.3,1.4-3.5,1.7-5.1,0.7L34,49.1
			L21.6,70.7L34.2,78c1.7,1,2.5,2.9,2,4.8c-1.6,5.6-2.4,11.4-2.4,17.2s0.8,11.6,2.4,17.2c0.5,1.9-0.3,3.8-2,4.8l-12.6,7.3L34,150.9
			l11.9-6.9l20.5-20.5c1.6-1.6,4.3-1.6,6,0c1.6,1.6,1.6,4.3,0,6l-17.7,17.7c7.2,6.5,15.7,11.2,25,13.9L98.7,142c1.6-1.6,4.3-1.6,6,0
			c1.6,1.6,1.6,4.3,0,6l-19.9,19.9L84.8,180.2L84.8,180.2z M97.2,122c-12.1,0-22-9.9-22-22s9.9-22,22-22s22,9.9,22,22
			S109.4,122,97.2,122z M97.2,86.5c-7.5,0-13.5,6.1-13.5,13.5c0,7.5,6.1,13.5,13.5,13.5s13.5-6.1,13.5-13.5S104.7,86.5,97.2,86.5z"
			/>
	</g>
</g>
<text transform="matrix(1 0 0 1 190 133)" class="st1 st2">GEAR47</text>
</svg>
